<svg xmlns="http://www.w3.org/2000/svg" width="490" height="112.651" viewBox="0 0 490 112.651">
  <g id="undraw_Code_review_re_woeb" transform="translate(-453.236 -80.594)">
    <path id="Path_92" data-name="Path 92" d="M809.687,279.172H601.622a11.7,11.7,0,0,1,0-23.392H809.687a11.7,11.7,0,0,1,0,23.392Z" transform="translate(-136.689 -130.248)" fill="#2a2d3e"/>
    <path id="Path_93" data-name="Path 93" d="M954.833,279.172H746.768a11.7,11.7,0,1,1,0-23.392H954.833a11.7,11.7,0,0,1,0,23.392Z" transform="translate(-23.293 -130.248)" fill="#2a2d3e"/>
    <path id="Path_94" data-name="Path 94" d="M1022.331,304.054H660.371a11.7,11.7,0,0,1,0-23.392h361.961a11.7,11.7,0,0,1,0,23.392Z" transform="translate(-90.791 -110.809)" fill="#2a2d3e"/>
    <path id="Path_95" data-name="Path 95" d="M809.687,253.944H601.622a11.7,11.7,0,0,1,0-23.392H809.687a11.7,11.7,0,0,1,0,23.392Z" transform="translate(-136.689 -149.958)" fill="#2a2d3e"/>
    <path id="Path_96" data-name="Path 96" d="M808.629,254.29h-59.1a11.7,11.7,0,0,1,0-23.392h59.1a11.7,11.7,0,0,1,0,23.392Z" transform="translate(-21.133 -149.687)" fill="#2a2d3e"/>
    <path id="Path_97" data-name="Path 97" d="M660.717,304.054h-59.1a11.7,11.7,0,0,1,0-23.392h59.1a11.7,11.7,0,1,1,0,23.392Z" transform="translate(-136.689 -110.809)" fill="#2a2d3e"/>
  </g>
</svg>
