<svg id="css-3" xmlns="http://www.w3.org/2000/svg" width="163.997" height="231.482" viewBox="0 0 163.997 231.482">
  <path id="Path_14" data-name="Path 14" d="M82.343,256.756,15.37,238.164.445,70.766h164L149.5,238.138,82.343,256.756Z" transform="translate(-0.445 -25.274)" fill="#6a7ff9"/>
  <path id="Path_15" data-name="Path 15" d="M182.267,235.084,195.034,92.057H128V250.129Z" transform="translate(-46.001 -32.878)" fill="#6a7ff9"/>
  <path id="Path_16" data-name="Path 16" d="M51.615,165.549l1.84,20.531H99.4V165.549Zm-3.7-41.554,1.866,20.531H99.4V123.995ZM99.4,218.87l-.09.024L76.443,212.72l-1.462-16.374H54.372l2.876,32.236L99.3,240.256l.094-.026Z" transform="translate(-17.4 -44.285)" fill="#ebebeb"/>
  <path id="Path_17" data-name="Path 17" d="M60.484,0H85.349V10.4H70.883V20.8H85.351V31.2H60.484ZM90.323,0h24.866V9.042H100.722v1.808h14.467v20.8H90.324v-9.5h14.467V20.344H90.322V0Zm29.84,0h24.866V9.042H130.562v1.808h14.467v20.8H120.163v-9.5H134.63V20.344H120.164V0Z" transform="translate(-21.888)" fill="#fff"/>
  <path id="Path_18" data-name="Path 18" d="M175.613,165.549l3.706-41.554H127.89v20.531h28.929l-1.868,21.024H127.89V186.08h25.281l-2.384,26.627-22.9,6.18v21.359l42.089-11.665.309-3.469,4.825-54.051Z" transform="translate(-45.962 -44.285)" fill="#fff"/>
</svg>
