<svg id="javascript-4" xmlns="http://www.w3.org/2000/svg" width="159.54" height="224.578" viewBox="0 0 159.54 224.578">
  <path id="Path_9" data-name="Path 9" d="M159.54,489.9H0L14.957,652.09l64.8,18.379,64.8-18.379Z" transform="translate(0 -445.892)" fill="#6a7ff9"/>
  <path id="Path_10" data-name="Path 10" d="M887.9,637V790.611l52.506-14.876L953.18,637Z" transform="translate(-808.139 -579.777)" fill="#6a7ff9"/>
  <path id="Path_11" data-name="Path 11" d="M477.955,858.5H397.223L391.6,919.226l.117-.377H460.3l-2.237,25.692-21.883,6.3-22.206-6.4-1.329-15.549H392.489l2.875,31.073,40.819,11.588,40.837-11.588,5.623-60.986h-72.79l.934-20.32h50.5l.755,11.642h20.338Z" transform="translate(-356.422 -781.38)" fill="#fff"/>
  <path id="Path_12" data-name="Path 12" d="M436.2,858.5H397.223L391.6,919.226l.117-.377H436.2V899.041H412.692l.934-20.32H436.2Zm-23.509,70.392h-20.2l2.875,31.054,40.819,11.57V950.855l-22.206-6.414Z" transform="translate(-356.422 -781.38)" fill="#ebebeb"/>
  <path id="Path_13" data-name="Path 13" d="M571.3,20.086H557.1v10.2h24.362V0H571.3ZM616.541.162H591.784v10.6c3.306,3.306,5.031,4.9,9.9,9.684h-9.9v9.666h24.757V20.464l-9.9-9.684h9.9Z" transform="translate(-507.055)" fill="#fff"/>
</svg>
