<svg id="adobe-xd" xmlns="http://www.w3.org/2000/svg" width="182.761" height="178.192" viewBox="0 0 182.761 178.192">
  <path id="Path_147" data-name="Path 147" d="M10,10H177.531V172.962H10Z" transform="translate(-2.385 -2.385)" fill="#80cbc4"/>
  <path id="Path_148" data-name="Path 148" d="M0,0V178.192H182.761V0ZM7.615,7.615H175.146V170.577H7.615Z" fill="#a5be83"/>
  <path id="Path_149" data-name="Path 149" d="M143.512,88.092a10.457,10.457,0,0,0-4.417-.761c-9.595,0-15.992,7.387-15.992,19.647,0,14.012,6.549,19.647,15.078,19.647a14.367,14.367,0,0,0,5.254-.838V88.092ZM109.4,107.587c0-17.743,11.423-31.6,30.156-31.6a33.769,33.769,0,0,1,3.96.152v-19.8a.763.763,0,0,1,.762-.762h12.26c.609,0,.761.228.761.609v69.6a54.24,54.24,0,0,0,.381,7.463c0,.533,0,.609-.457.838a45.36,45.36,0,0,1-19.494,4.417c-16.525,0-28.328-10.2-28.328-30.917ZM83.429,95.251l21.322,41.35c.381.609.152,1.218-.457,1.218H91.044a1.494,1.494,0,0,1-1.6-.99q-7.31-15.078-14.925-31.3h-.152C69.8,115.735,64.772,126.853,59.9,136.9a1.462,1.462,0,0,1-1.371.838H45.887c-.762,0-.838-.609-.457-1.066L66.3,96.545l-20.18-39.9a.674.674,0,0,1,.533-1.142h13.1c.762,0,1.142.152,1.371.838,4.8,10.128,9.671,20.1,14.24,30.308h.152c4.417-10.052,9.29-20.18,13.936-30.156.381-.609.609-.99,1.371-.99h12.26c.609,0,.838.457.457,1.142Z" transform="translate(-10.782 -13.237)" fill="#2a2d3e"/>
</svg>
