<svg xmlns="http://www.w3.org/2000/svg" width="288.859" height="97.557" viewBox="0 0 288.859 97.557">
  <g id="Clip_studio_file_logo_SVG" transform="translate(-2 -1.8)">
    <g id="layer1" transform="translate(163.338 3.31)">
      <path id="path841-6" d="M119.376,128.772l6,.03s6.368.059,6.563,4.678-1.82,6.4-5.719,6.574-7.148.059-7.148.059v-.888l5.524.118s4.874-.533,4.874-3.613-.585-3.613-.585-3.613a5.507,5.507,0,0,0-4.419-2.547,44.764,44.764,0,0,0-6.433.059Z" transform="translate(-118.035 -128.244)" fill="#80cbc4"/>
      <path id="path845-7" d="M145.79,128.715v1.1h5.2v21.3h2.326v-21.3h5.2v-1.163Z" transform="translate(-105.768 -128.297)" fill="#80cbc4"/>
      <path id="path889" d="M156.845,128.753h1.771v17.782a4.655,4.655,0,0,0,5.178,3.747c3.351-.252,6.146-1.261,6.132-4.224-.068-2.044,0-17.3,0-17.3h1.022v17.918s.2,4.275-6,4.7c-4.394.417-7.534-1.435-8.039-4.428-.341-2.589-.068-18.191-.068-18.191Z" transform="translate(-100.927 -128.253)" fill="#80cbc4"/>
      <path id="path891" d="M172.2,128.706h5.791s9.47.238,9.708,9.777c-.029,4.342.661,6.945-6.979,11.912l-10.02.386.608-1.054h7.84s1.732,1.971,4.912-3.139c2.964-6.37.3-13.146.3-13.146A8.847,8.847,0,0,0,178.1,129.9c-3.917-.2-6.1-.17-6.1-.17Z" transform="translate(-94.756 -128.274)" fill="#80cbc4"/>
      <rect id="rect893" width="1.499" height="22.074" transform="translate(75.946 0.432)" fill="#80cbc4"/>
      <rect id="rect897" width="2.409" height="22.064" transform="translate(97.647 0.405)" fill="#80cbc4"/>
      <path id="path899" d="M190.578,141.035l1.68.2s-1.267-12.335,8.313-11.96,8.114,13.677,8.114,13.677l1.035.138.665-4.755s-1.684-9.6-9.982-9.788c-8.188-.183-9.767,9.356-9.767,9.356Z" transform="translate(-85.972 -128.344)" fill="#80cbc4"/>
      <path id="path899-1" d="M210.372,135.469l-1.745.887s1.241,12.692-8.272,12.32-8.057-13.582-8.057-13.582l-1.673-.057-.015,4.643s1.672,9.536,9.912,9.72c8.131.182,9.8-10.142,9.8-10.142Z" transform="translate(-85.959 -125.476)" fill="#80cbc4"/>
      <path id="path916" d="M146.994,130.546l-.53,1.3s-4-5.926-8.142-.482c-2.7,8.687,14.067,6.645,8.235,17.8-2.582,3.4-7.91,1.821-7.91,1.821l-2.542-1.889.482-1.349s5.809,6.352,9.085-.729c.718-8.652-13.5-5.273-8.314-15.987,3.918-5.6,9.635-.482,9.635-.482Z" transform="translate(-110.048 -128.406)" fill="#80cbc4"/>
      <path id="path856" d="M146.994,130.4l-.53,1.3s-3.083-3.95-6.793-1.831-1.686,8.045,2.12,9.3c3.806,1.012,7.244,2.812,6.118,8.19-.236,1.129-6.311,8.142-11.8,1.59l.482-1.349s5.347,6.022,8.334.771c3.42-6.311-2.7-7.515-3.613-7.9s-5.4-1.879-5.155-5.781,2.361-8.479,10.839-4.288" transform="translate(-110.048 -128.261)" fill="#80cbc4"/>
      <path id="path32" d="M176.562,143.984a4.863,4.863,0,0,0,3.854-1.563c1.635-1.805.273.341.273.341l-2.555,1.891-1.38-.017Z" transform="translate(-92.167 -122.531)" fill="#80cbc4"/>
      <path id="path891-5" d="M172.2,150.759h5.791s9.47-.238,9.708-9.746c-.029-4.329.6-6.2-7.04-11.151l-9.959-1.108.608,1.05h7.84s1.732-1.964,4.912,3.13c2.964,6.35.3,13.105.3,13.105a8.85,8.85,0,0,1-6.268,3.532c-3.917.2-6.1.17-6.1.17Z" transform="translate(-94.756 -128.253)" fill="#80cbc4"/>
      <path id="path854" d="M190.608,139.862s2.6-1.427.015-4.643c-.006-.007.941,1.609.941,1.609l-.209-2.205.175,5.952" transform="translate(-85.959 -125.658)" fill="#80cbc4"/>
    </g>
    <g id="layer2" transform="translate(2 1.8)">
      <path id="path21" d="M59.689,155.708s8.41-1.214,10.337,3.314,2.794,7.323-1.253,9.635-28.23,12.333-28.23,12.333-18.21,7.419-29.579-7.708.963-26.4.963-26.4,4.047-4.239,14.067-8.19,26.978-10.02,26.978-10.02,15.8-3.469,27.363.867a50.3,50.3,0,0,1,19.077,13.489s8.479,9.25,8.093,20.812c-.394,11.826-3.565,13.971-3.565,13.971a40.1,40.1,0,0,1-21.1,18.692c-14.934,5.492-18.6,7.612-18.6,7.612L70.8,214.424s3.758,7.612-3.95,9.924-11.466-3.18-11.466-3.18l-15.8-23.413,39.6-17.439s12.718-8.864,11.466-17.921A23.375,23.375,0,0,0,78.5,144.377c-7.323-4.528-13.778-3.372-13.778-3.372a72,72,0,0,0-15.32,4.528C40.158,149,28.5,154.205,28.5,154.205s-7.034,2.216-5.01,7.8,8.093,5.107,8.093,5.107Z" transform="translate(-6.149 -127.359)" fill="#80cbc4"/>
      <rect id="rect831" width="5.781" height="50.295" transform="translate(118.7 42.478)" fill="#80cbc4"/>
      <path id="path841" d="M93.337,156.817l12.585.07s13.353.136,13.762,10.764-3.815,14.716-11.991,15.125-14.989.136-14.989.136v-2.044l11.582.273s10.219-1.226,10.219-8.312-1.226-8.312-1.226-8.312a11.564,11.564,0,0,0-9.266-5.859,85.579,85.579,0,0,0-13.49.136Z" transform="translate(31.144 -114.339)" fill="#80cbc4"/>
      <rect id="rect833" width="5.781" height="50.295" transform="translate(197.899 42.285)" fill="#80cbc4"/>
      <path id="path835" d="M122.409,163.633l17.728,44.128h5.4L125.3,155.347Z" transform="translate(45.236 -114.989)" fill="#80cbc4"/>
      <path id="path837" d="M109.714,207.376l21.2-52.029,1.542,5.2-4.432,3.083h0l1.4,3.276L113.383,207.68Z" transform="translate(39.625 -114.988)" fill="#80cbc4"/>
      <path id="path839" d="M136.383,179.071H115.944v2.044h21.938Z" transform="translate(42.378 -104.503)" fill="#80cbc4"/>
      <path id="path845" d="M186.815,156.907v2.453H198.4v47.418h5.178V159.359h11.582v-2.589Z" transform="translate(73.702 -114.36)" fill="#80cbc4"/>
      <path id="path843" d="M156.955,156.718v49.871h2.725v-42.24l33.928,44.012V156.854h-2.861v38.834l-30.113-39.106Z" transform="translate(60.505 -114.443)" fill="#80cbc4"/>
      <path id="path847" d="M104.66,133.252l1.5-.068s-4.709-5.281-9.35-4.513c-5.051.835-6.694,3.321-6.694,3.321a10.252,10.252,0,0,0-2.35,6.37,12.866,12.866,0,0,0,.2,4.633s1.363,8.516,8.38,8.584,9.743-4.156,9.743-4.156l-1.022-1.158s-11.282,10.5-14.784-1.908c-3.94-13.959,7.333-14.962,7.333-14.962S101.321,128.823,104.66,133.252Z" transform="translate(29.886 -126.813)" fill="#80cbc4"/>
      <path id="path849" d="M103.093,128.9h2.453v20.3h7.9l-.034,1.533-10.322.034Z" transform="translate(36.699 -126.68)" fill="#80cbc4"/>
      <path id="path851" d="M111.881,128.8h2.453v21.938h-2.18Z" transform="translate(40.583 -126.722)" fill="#80cbc4"/>
      <rect id="rect870" width="2.02" height="21.81" transform="translate(161.338 2.025)" fill="#80cbc4"/>
    </g>
  </g>
</svg>
