<svg id="html-5_1_" data-name="html-5(1)" xmlns="http://www.w3.org/2000/svg" width="158.884" height="224.264" viewBox="0 0 158.884 224.264">
  <path id="Path_4" data-name="Path 4" d="M159.329,70.766,144.854,232.919,79.79,250.957,14.9,232.944.445,70.766H159.329Z" transform="translate(-0.445 -26.693)" fill="#80cbc4"/>
  <path id="Path_5" data-name="Path 5" d="M128,245.2l52.575-14.576L192.944,92.057H128Z" transform="translate(-48.558 -34.724)" fill="#80cbc4"/>
  <path id="Path_6" data-name="Path 6" d="M69.655,143.885H97.793V124H47.917l.476,5.336,4.889,54.813H97.793V164.254H71.473Zm4.483,50.2H54.171l2.786,31.231L97.7,236.631l.092-.025V215.912l-.087.023-22.152-5.981Z" transform="translate(-18.351 -46.77)" fill="#ebebeb"/>
  <path id="Path_7" data-name="Path 7" d="M24.18,0H34.288V9.987h9.247V0H53.644V30.242H43.536V20.115H34.289V30.242H24.181V0ZM66.936,10.029h-8.9V0h27.91V10.029h-8.9V30.242H66.937V10.029h0ZM90.378,0h10.54L107.4,10.626,113.878,0h10.544V30.242H114.355V15.252L107.4,26.005h-.174l-6.959-10.753v14.99h-9.89Zm39.075,0h10.111V20.246h14.215v10H129.452V0Z" transform="translate(-9.398)" fill="#fff"/>
  <path id="Path_8" data-name="Path 8" d="M127.89,184.144h24.493l-2.309,25.8-22.184,5.988v20.693l40.777-11.3.3-3.361,4.675-52.365.485-5.341H127.89Zm0-40.307v.049h48.045l.4-4.47.907-10.084.475-5.336H127.89v19.843Z" transform="translate(-48.516 -46.77)" fill="#fff"/>
</svg>
