<svg xmlns="http://www.w3.org/2000/svg" width="201.124" height="200.079" viewBox="0 0 201.124 200.079">
  <g id="python-5" transform="translate(338.855 -21.047)">
    <path id="Path_145" data-name="Path 145" d="M99.983.072c-51.058,0-47.87,22.142-47.87,22.142l.057,22.94h48.724V52.04H32.817S.145,48.335.145,99.852s28.517,49.692,28.517,49.692H45.681V125.637S44.763,97.12,73.742,97.12h48.325s27.151.439,27.151-26.24V26.768S153.342.072,99.983.072ZM73.116,15.5a8.757,8.757,0,1,1-6.2,2.565A8.757,8.757,0,0,1,73.116,15.5Z" transform="translate(-339 20.976)" fill="#a5be83"/>
    <path id="Path_146" data-name="Path 146" d="M115.454,213.8c51.058,0,47.87-22.142,47.87-22.142l-.057-22.939H114.543v-6.887h68.076s32.672,3.705,32.672-47.813-28.517-49.691-28.517-49.691H169.756V88.235s.917,28.517-28.062,28.517H93.369s-27.151-.439-27.151,26.241v44.113s-4.123,26.7,49.236,26.7Zm26.866-15.425a8.759,8.759,0,1,1,6.2-2.566,8.758,8.758,0,0,1-6.2,2.566Z" transform="translate(-353.022 7.326)" fill="#80cbc4"/>
  </g>
</svg>
