<svg xmlns="http://www.w3.org/2000/svg" xmlns:xlink="http://www.w3.org/1999/xlink" width="174.107" height="174.109" viewBox="0 0 174.107 174.109">
  <defs>
    <clipPath id="clip-path">
      <path id="Path_144" data-name="Path 144" d="M0,0H174.107V174.109H0Z"/>
    </clipPath>
  </defs>
  <g id="wordpress-blue" clip-path="url(#clip-path)">
    <path id="Path_139" data-name="Path 139" d="M391.386,53.227H361.179v3.2c9.448,0,10.967,2.025,10.967,14.006v21.6c0,11.981-1.516,14.176-10.967,14.176-7.253-1.013-12.15-4.894-18.9-12.32l-7.762-8.437c10.46-1.859,16.029-8.438,16.029-15.864,0-9.279-7.929-16.367-22.781-16.367h-29.7v3.2c9.448,0,10.967,2.025,10.967,14.006v21.6c0,11.981-1.518,14.176-10.967,14.176v3.206h33.58v-3.206c-9.447,0-10.967-2.2-10.967-14.176V85.968h2.869l18.732,23.454h49.107c24.13,0,34.595-12.823,34.595-28.182s-10.464-28.013-34.6-28.013Zm-70.7,27.5V58.29H327.6c7.593,0,10.969,5.231,10.969,11.306,0,5.907-3.376,11.137-10.969,11.137Zm71.212,23.458h-1.182c-6.073,0-6.918-1.516-6.918-9.279V58.29h8.1c17.55,0,20.753,12.823,20.753,22.781C412.648,91.363,409.442,104.19,391.894,104.19ZM204.077,86.978,215.72,52.549c3.376-9.956,1.859-12.822-8.943-12.822V36.351H238.5v3.376c-10.629,0-13.162,2.529-17.379,14.848l-19.239,57.714h-2.193L182.476,59.47l-17.548,52.82h-2.2L144,54.577c-4.05-12.319-6.75-14.848-16.538-14.848V36.352h37.463v3.376c-9.959,0-12.659,2.362-9.113,12.822l11.306,34.429,17.042-50.627h3.209l16.707,50.626Zm57.373,24.635c-18.561,0-33.749-13.667-33.749-30.376,0-16.538,15.188-30.207,33.749-30.207S295.2,64.7,295.2,81.237C295.2,97.946,280.013,111.613,261.45,111.613Zm0-55.348c-15.523,0-20.926,14-20.926,24.973,0,11.139,5.4,24.976,20.926,24.976,15.7,0,21.1-13.837,21.1-24.976C282.545,70.268,277.145,56.265,261.45,56.265Z" transform="translate(53.666 15.305)" fill="#00749a"/>
    <path id="Path_140" data-name="Path 140" d="M378.313,106.046v3.375H339.67v-3.375c11.307,0,13.332-2.869,13.332-19.747v-27c0-16.878-2.025-19.575-13.332-19.575V36.35H374.6c17.379,0,27,8.944,27,20.928,0,11.644-9.622,20.756-27,20.756h-9.62V86.3c0,16.879,2.025,19.747,13.333,19.747ZM374.6,42.425h-9.62V71.789h9.62c9.45,0,13.837-6.581,13.837-14.512C388.438,49.178,384.052,42.425,374.6,42.425ZM517.53,93.559l-.846,3.037c-1.516,5.569-3.376,7.594-15.357,7.594h-2.363c-8.773,0-10.293-2.025-10.293-14V82.424c13.163,0,14.176,1.179,14.176,9.956h3.207V67.233h-3.207c0,8.775-1.013,9.956-14.176,9.956v-18.9h9.279c11.984,0,13.838,2.025,15.357,7.594l.847,3.206h2.7l-1.179-15.862H466.059v3.2c9.448,0,10.969,2.025,10.969,14.006v21.6c0,10.96-1.289,13.721-8.739,14.117-7.081-1.083-11.942-4.944-18.594-12.261l-7.763-8.437c10.463-1.859,16.032-8.438,16.032-15.864,0-9.279-7.931-16.367-22.781-16.367h-29.7v3.2c9.448,0,10.969,2.025,10.969,14.006v21.6c0,11.981-1.518,14.176-10.969,14.176v3.206h33.582v-3.206c-9.447,0-10.969-2.2-10.969-14.176V85.968h2.87L449.7,109.422h69.355l1.013-15.86ZM428.095,80.732V58.291h6.918c7.594,0,10.97,5.231,10.97,11.306,0,5.907-3.376,11.137-10.97,11.137Zm123.691,30.882a24.948,24.948,0,0,1-15.188-5.738,12.111,12.111,0,0,0-2.7,5.738h-3.207V88.327h3.375c1.351,11.138,9.112,17.719,19.069,17.719,5.4,0,9.788-3.038,9.788-8.1,0-4.387-3.879-7.763-10.8-10.969l-9.62-4.556c-6.751-3.209-11.812-8.779-11.812-16.2,0-8.1,7.594-15.017,18.057-15.017a21.133,21.133,0,0,1,13.163,4.388c.843-.676,1.688-2.532,2.194-4.559h3.206V70.948h-3.544c-1.182-7.932-5.569-14.513-14.512-14.513-4.725,0-9.113,2.7-9.113,6.92,0,4.387,3.543,6.748,11.644,10.46l9.279,4.556c8.1,3.881,11.306,10.128,11.306,15.189,0,10.629-9.281,18.053-20.586,18.053Zm51.974,0a24.941,24.941,0,0,1-15.188-5.738,12.112,12.112,0,0,0-2.7,5.738h-3.207V88.327h3.375c1.35,11.138,9.11,17.719,19.069,17.719,5.4,0,9.788-3.038,9.788-8.1,0-4.387-3.881-7.763-10.8-10.969l-9.62-4.556c-6.75-3.209-11.812-8.779-11.812-16.2,0-8.1,7.594-15.017,18.057-15.017a21.136,21.136,0,0,1,13.163,4.388c.843-.676,1.687-2.532,2.191-4.559h3.207V70.948h-3.543c-1.182-7.932-5.569-14.513-14.512-14.513-4.725,0-9.115,2.7-9.115,6.92,0,4.387,3.544,6.748,11.645,10.46l9.279,4.556c8.1,3.881,11.3,10.128,11.3,15.189,0,10.629-9.281,18.053-20.585,18.053Z" transform="translate(143.011 15.304)" fill="#464342"/>
    <g id="Group_55" data-name="Group 55">
      <path id="Path_141" data-name="Path 141" d="M8.708,83.386A74.7,74.7,0,0,0,50.8,150.6L15.174,52.993A74.4,74.4,0,0,0,8.708,83.386Zm125.1-3.769c0-9.23-3.315-15.621-6.159-20.6-3.786-6.152-7.333-11.361-7.333-17.513,0-6.865,5.205-13.255,12.539-13.255.331,0,.645.041.969.06A74.666,74.666,0,0,0,20.991,42.369c1.752.053,3.4.088,4.806.088,7.811,0,19.9-.948,19.9-.948,4.026-.237,4.5,5.676.48,6.152,0,0-4.047.476-8.549.712l27.2,80.892L81.172,80.25,69.535,48.372c-4.022-.236-7.831-.712-7.831-.712-4.024-.236-3.553-6.389.472-6.152,0,0,12.333.948,19.671.948,7.81,0,19.9-.948,19.9-.948,4.029-.237,4.5,5.676.479,6.152,0,0-4.054.476-8.548.712l26.988,80.28,7.448-24.892c3.23-10.329,5.687-17.749,5.687-24.142Z" transform="translate(3.666 3.666)" fill="#80cbc4"/>
      <path id="Path_142" data-name="Path 142" d="M68.823,78.408,46.416,143.517a74.7,74.7,0,0,0,45.9-1.189,6.326,6.326,0,0,1-.531-1.029Zm64.219-42.362a57.316,57.316,0,0,1,.5,7.679c0,7.578-1.415,16.1-5.678,26.749l-22.812,65.954A74.693,74.693,0,0,0,133.042,36.046Z" transform="translate(19.543 15.176)" fill="#80cbc4"/>
      <path id="Path_143" data-name="Path 143" d="M87.055,0a87.055,87.055,0,1,0,87.059,87.052A87.153,87.153,0,0,0,87.055,0Zm0,170.119a83.063,83.063,0,1,1,83.059-83.066,83.16,83.16,0,0,1-83.059,83.066Z" fill="#80cbc4"/>
    </g>
  </g>
</svg>
